# xmcd
# 
# Track frame offsets:
#     182
#     16112
#     32915
#     48245
# 
# Disc length: 865
# 
# Revision: 6
# Processed by: cddbd v1.5.2PL0 Copyright (c) Steve Scherf et al.
# Submitted via: fre:ac v1.0.31
# 
DISCID=25035f04
DTITLE=Louchie Lou and Michie One - Shout (It Out)
DYEAR=1993
DGENRE=Dance
TTITLE0=Shout (It Out) [Radio Edit]
TTITLE1=Shout (It Out) [Dub 1]
TTITLE2=Shout (It Out) [Dub 2]
TTITLE3=Shout (It Out) [Accapella]
EXTD=
EXTT0=
EXTT1=
EXTT2=
EXTT3=
PLAYORDER=
